<svg width="225" height="94" viewBox="0 0 225 94" fill="none" xmlns="http://www.w3.org/2000/svg">
<path d="M124.182 64.8182C121.97 64.8182 119.962 64.4015 118.159 63.5682C116.356 62.7197 114.924 61.5 113.864 59.9091C112.803 58.303 112.273 56.3636 112.273 54.0909C112.273 52.0909 112.667 50.4697 113.455 49.2273C114.242 47.9697 115.295 46.9848 116.614 46.2727C117.932 45.5606 119.386 45.0303 120.977 44.6818C122.583 44.3182 124.197 44.0303 125.818 43.8182C127.939 43.5455 129.659 43.3409 130.977 43.2045C132.311 43.053 133.28 42.803 133.886 42.4545C134.508 42.1061 134.818 41.5 134.818 40.6364V40.4545C134.818 38.2121 134.205 36.4697 132.977 35.2273C131.765 33.9848 129.924 33.3636 127.455 33.3636C124.894 33.3636 122.886 33.9242 121.432 35.0455C119.977 36.1667 118.955 37.3636 118.364 38.6364L113.273 36.8182C114.182 34.697 115.394 33.0455 116.909 31.8636C118.439 30.6667 120.106 29.8333 121.909 29.3636C123.727 28.8788 125.515 28.6364 127.273 28.6364C128.394 28.6364 129.682 28.7727 131.136 29.0455C132.606 29.303 134.023 29.8409 135.386 30.6591C136.765 31.4773 137.909 32.7121 138.818 34.3636C139.727 36.0152 140.182 38.2273 140.182 41V64H134.818V59.2727H134.545C134.182 60.0303 133.576 60.8409 132.727 61.7045C131.879 62.5682 130.75 63.303 129.341 63.9091C127.932 64.5152 126.212 64.8182 124.182 64.8182ZM125 60C127.121 60 128.909 59.5833 130.364 58.75C131.833 57.9167 132.939 56.8409 133.682 55.5227C134.439 54.2045 134.818 52.8182 134.818 51.3636V46.4545C134.591 46.7273 134.091 46.9773 133.318 47.2045C132.561 47.4167 131.682 47.6061 130.682 47.7727C129.697 47.9242 128.735 48.0606 127.795 48.1818C126.871 48.2879 126.121 48.3788 125.545 48.4545C124.152 48.6364 122.848 48.9318 121.636 49.3409C120.439 49.7348 119.47 50.3333 118.727 51.1364C118 51.9242 117.636 53 117.636 54.3636C117.636 56.2273 118.326 57.6364 119.705 58.5909C121.098 59.5303 122.864 60 125 60ZM149.972 64V29.0909H155.153V34.3636H155.517C156.153 32.6364 157.305 31.2348 158.972 30.1591C160.638 29.0833 162.517 28.5455 164.608 28.5455C165.002 28.5455 165.494 28.553 166.085 28.5682C166.676 28.5833 167.123 28.6061 167.426 28.6364V34.0909C167.244 34.0455 166.828 33.9773 166.176 33.8864C165.54 33.7803 164.866 33.7273 164.153 33.7273C162.456 33.7273 160.941 34.0833 159.608 34.7955C158.29 35.4924 157.244 36.4621 156.472 37.7045C155.714 38.9318 155.335 40.3333 155.335 41.9091V64H149.972ZM178.847 29.0909L187.21 43.3636L195.574 29.0909H201.756L190.483 46.5455L201.756 64H195.574L187.21 50.4545L178.847 64H172.665L183.756 46.5455L172.665 29.0909H178.847Z" fill="white"/>
<path d="M41.3008 91.3438C39.9459 91.8229 38.8152 92.7744 38.1055 94.001L5.19531 75C5.90281 73.7717 6.16144 72.3167 5.89844 70.9033L41.3008 50.4648V91.3438ZM80.7031 70.9043C80.4405 72.3169 80.6994 73.7712 81.4062 74.999L48.4961 94C47.7862 92.7737 46.6557 91.8216 45.3008 91.3428V50.4648L80.7031 70.9043ZM39.3008 47L3.89844 67.4395C2.80613 66.5059 1.41686 66.0033 0 66.002V28C1.41707 27.9986 2.80605 27.4953 3.89844 26.5615L39.3008 47ZM82.7031 26.5615C83.7956 27.4956 85.1852 27.9987 86.6025 28V66.002C85.1854 66.0032 83.7956 66.5056 82.7031 67.4395L47.3018 47L82.7031 26.5615ZM38.1055 0C38.8151 1.2268 39.9457 2.178 41.3008 2.65723V43.5361L5.89844 23.0967C6.16094 21.6835 5.90203 20.229 5.19434 19.001L38.1055 0ZM81.4062 19.001C80.6991 20.2285 80.441 21.6831 80.7031 23.0957L45.3008 43.5361V2.6582C46.6559 2.17922 47.7862 1.22756 48.4961 0.000976562L81.4062 19.001Z" fill="#51B4FF"/>
</svg>
