<svg
  width="94"
  height="94"
  viewBox="0 0 94 94"
  fill="none"
  xmlns="http://www.w3.org/2000/svg"
>
  <g transform="translate(3.7,0)">
    <path
      d="M41.3008 91.3438C39.9459 91.8229 38.8152 92.7744 38.1055 94.001L5.19531 75C5.90281 73.7717 6.16144 72.3167 5.89844 70.9033L41.3008 50.4648V91.3438ZM80.7031 70.9043C80.4405 72.3169 80.6994 73.7712 81.4062 74.999L48.4961 94C47.7862 92.7737 46.6557 91.8216 45.3008 91.3428V50.4648L80.7031 70.9043ZM39.3008 47L3.89844 67.4395C2.80613 66.5059 1.41686 66.0033 0 66.002V28C1.41707 27.9986 2.80605 27.4953 3.89844 26.5615L39.3008 47ZM82.7031 26.5615C83.7956 27.4956 85.1852 27.9987 86.6025 28V66.002C85.1854 66.0032 83.7956 66.5056 82.7031 67.4395L47.3018 47L82.7031 26.5615ZM38.1055 0C38.8151 1.2268 39.9457 2.178 41.3008 2.65723V43.5361L5.89844 23.0967C6.16094 21.6835 5.90203 20.229 5.19434 19.001L38.1055 0ZM81.4062 19.001C80.6991 20.2285 80.441 21.6831 80.7031 23.0957L45.3008 43.5361V2.6582C46.6559 2.17922 47.7862 1.22756 48.4961 0.000976562L81.4062 19.001Z"
      fill="#B7EDEE"
    />
  </g>
</svg>
